<svg version="1.1" id="Layer_1" xmlns="http://www.w3.org/2000/svg" xmlns:xlink="http://www.w3.org/1999/xlink" x="0px" y="0px"
	 width="100%" viewBox="0 0 646 646" enable-background="new 0 0 646 646" xml:space="preserve">
<path fill="#FFFFFF" opacity="1.000000" stroke="none" 
	d="
M342.000000,647.000000 
	C228.000015,647.000000 114.500038,647.000000 1.000046,647.000000 
	C1.000031,431.666718 1.000031,216.333450 1.000015,1.000132 
	C216.333237,1.000088 431.666473,1.000088 646.999756,1.000044 
	C646.999878,216.333191 646.999878,431.666382 646.999939,646.999756 
	C545.500000,647.000000 444.000000,647.000000 342.000000,647.000000 
M184.997650,503.493866 
	C184.382797,502.549713 183.866531,501.520721 183.138184,500.674225 
	C173.524536,489.501709 169.215759,476.063080 169.159180,461.823944 
	C168.832779,379.670807 169.000000,297.515656 169.000000,215.361206 
	C169.000000,213.747620 169.000000,212.134048 169.000000,209.160904 
	C178.699600,220.035919 187.683380,229.931229 196.466095,240.001877 
	C206.577133,251.595596 216.460266,263.387817 226.537506,275.011353 
	C234.064163,283.692932 241.787109,292.204132 249.341354,300.862122 
	C260.219971,313.330170 271.012878,325.872894 281.865448,338.363770 
	C288.747192,346.284393 295.705292,354.138794 302.567566,362.076172 
	C312.846161,373.965057 323.022461,385.942596 333.333984,397.802673 
	C340.981842,406.599152 348.852905,415.201691 356.484741,424.011780 
	C366.339691,435.388184 375.991882,446.940247 385.851135,458.312836 
	C393.595367,467.245758 401.586731,475.964081 409.351685,484.879364 
	C422.152649,499.576752 434.848663,514.365417 447.611145,529.096375 
	C452.661224,534.925415 457.868286,540.621277 462.818726,546.532837 
	C466.079926,550.427063 469.897186,552.979675 475.086945,552.990173 
	C489.251465,553.018799 503.416046,553.011414 517.580627,552.995605 
	C525.684875,552.986572 527.999817,550.622620 527.999817,542.443970 
	C528.000122,422.295166 528.005127,302.146362 527.990967,181.997543 
	C527.989746,171.512558 529.324768,161.267395 533.004700,151.394867 
	C535.897583,143.633621 539.645142,136.404678 546.152649,130.996475 
	C553.966064,124.502960 563.046997,122.259827 573.136719,121.794983 
	C581.397278,121.414421 583.378296,118.825256 583.065552,111.776566 
	C582.762939,104.957672 582.904053,98.112961 583.037537,91.283249 
	C583.112244,87.463982 581.452271,85.035934 577.886292,84.061310 
	C575.724854,83.470566 573.438538,83.045502 571.207764,83.042999 
	C521.048584,82.986984 470.889374,82.999969 420.730164,83.000198 
	C419.730316,83.000206 418.718140,82.901871 417.732727,83.022011 
	C412.451019,83.665932 409.148041,86.705948 409.042969,91.465912 
	C408.881195,98.794586 408.740936,106.142693 409.113892,113.455917 
	C409.290466,116.918640 410.408417,120.535515 414.963654,121.029854 
	C418.026855,121.362282 421.097534,121.632324 424.155304,122.008011 
	C435.506378,123.402634 445.029144,127.792702 452.114227,137.345901 
	C462.106201,150.818558 464.781036,166.406708 464.853760,182.321274 
	C465.186584,255.142258 465.000000,327.965637 465.000000,400.788147 
	C465.000000,402.377716 465.000000,403.967316 465.000000,406.537415 
	C460.097504,401.251648 455.785278,396.808868 451.704468,392.162842 
	C440.455933,379.356323 429.318329,366.452454 418.107819,353.612396 
	C413.033447,347.800446 407.852173,342.081696 402.786377,336.262329 
	C391.922394,323.782227 381.149811,311.222260 370.247864,298.775513 
	C362.129333,289.506683 353.808014,280.415619 345.682098,271.153198 
	C334.550842,258.465088 323.545502,245.666595 312.433533,232.961472 
	C306.916382,226.653259 301.217987,220.503326 295.713806,214.184052 
	C285.064423,201.957657 274.543915,189.618881 263.875458,177.409271 
	C255.877518,168.255951 247.685760,159.272202 239.662476,150.140747 
	C228.192459,137.086472 216.767654,123.992119 205.383041,110.863281 
	C199.706116,104.316582 194.244156,97.582565 188.526611,91.072342 
	C184.957626,87.008553 181.176376,83.011818 175.133728,83.008896 
	C138.639145,82.991249 102.144470,82.957596 65.650101,83.044022 
	C59.855206,83.057755 57.389435,85.391518 57.078300,91.326675 
	C56.728962,97.990616 56.999237,104.687027 57.000011,111.369316 
	C57.000977,119.732033 59.307419,122.201035 67.842880,121.942909 
	C77.401566,121.653839 86.015594,124.564789 94.177719,129.058060 
	C101.528572,133.104721 105.368614,138.187439 105.320129,147.962845 
	C104.804382,251.944839 105.056053,355.930450 104.870232,459.914673 
	C104.858215,466.639282 103.816895,473.620270 101.818802,480.034851 
	C95.695961,499.691467 84.815231,513.855347 61.612690,514.218628 
	C51.534134,514.376343 50.000057,517.235657 50.000004,527.580139 
	C49.999981,532.246094 49.988167,536.912170 50.002583,541.578064 
	C50.028545,549.982178 53.009632,552.999268 61.272877,552.999451 
	C112.098663,553.000488 162.924438,553.000061 213.750229,553.000000 
	C214.583435,553.000000 215.418274,553.033997 216.249573,552.994080 
	C220.954269,552.768372 222.983704,550.675110 222.994690,545.975403 
	C223.013779,537.818542 222.769196,529.652344 223.091797,521.508240 
	C223.268234,517.054504 221.602692,515.308350 217.310959,514.949768 
	C205.819107,513.989502 194.471146,512.429077 184.997650,503.493866 
z"/>
<path fill="#000000" opacity="1.000000" stroke="none" 
	d="
M185.258362,503.752411 
	C194.471146,512.429077 205.819107,513.989502 217.310959,514.949768 
	C221.602692,515.308350 223.268234,517.054504 223.091797,521.508240 
	C222.769196,529.652344 223.013779,537.818542 222.994690,545.975403 
	C222.983704,550.675110 220.954269,552.768372 216.249573,552.994080 
	C215.418274,553.033997 214.583435,553.000000 213.750229,553.000000 
	C162.924438,553.000061 112.098663,553.000488 61.272877,552.999451 
	C53.009632,552.999268 50.028545,549.982178 50.002583,541.578064 
	C49.988167,536.912170 49.999981,532.246094 50.000004,527.580139 
	C50.000057,517.235657 51.534134,514.376343 61.612690,514.218628 
	C84.815231,513.855347 95.695961,499.691467 101.818802,480.034851 
	C103.816895,473.620270 104.858215,466.639282 104.870232,459.914673 
	C105.056053,355.930450 104.804382,251.944839 105.320129,147.962845 
	C105.368614,138.187439 101.528572,133.104721 94.177719,129.058060 
	C86.015594,124.564789 77.401566,121.653839 67.842880,121.942909 
	C59.307419,122.201035 57.000977,119.732033 57.000011,111.369316 
	C56.999237,104.687027 56.728962,97.990616 57.078300,91.326675 
	C57.389435,85.391518 59.855206,83.057755 65.650101,83.044022 
	C102.144470,82.957596 138.639145,82.991249 175.133728,83.008896 
	C181.176376,83.011818 184.957626,87.008553 188.526611,91.072342 
	C194.244156,97.582565 199.706116,104.316582 205.383041,110.863281 
	C216.767654,123.992119 228.192459,137.086472 239.662476,150.140747 
	C247.685760,159.272202 255.877518,168.255951 263.875458,177.409271 
	C274.543915,189.618881 285.064423,201.957657 295.713806,214.184052 
	C301.217987,220.503326 306.916382,226.653259 312.433533,232.961472 
	C323.545502,245.666595 334.550842,258.465088 345.682098,271.153198 
	C353.808014,280.415619 362.129333,289.506683 370.247864,298.775513 
	C381.149811,311.222260 391.922394,323.782227 402.786377,336.262329 
	C407.852173,342.081696 413.033447,347.800446 418.107819,353.612396 
	C429.318329,366.452454 440.455933,379.356323 451.704468,392.162842 
	C455.785278,396.808868 460.097504,401.251648 465.000000,406.537415 
	C465.000000,403.967316 465.000000,402.377716 465.000000,400.788147 
	C465.000000,327.965637 465.186584,255.142258 464.853760,182.321274 
	C464.781036,166.406708 462.106201,150.818558 452.114227,137.345901 
	C445.029144,127.792702 435.506378,123.402634 424.155304,122.008011 
	C421.097534,121.632324 418.026855,121.362282 414.963654,121.029854 
	C410.408417,120.535515 409.290466,116.918640 409.113892,113.455917 
	C408.740936,106.142693 408.881195,98.794586 409.042969,91.465912 
	C409.148041,86.705948 412.451019,83.665932 417.732727,83.022011 
	C418.718140,82.901871 419.730316,83.000206 420.730164,83.000198 
	C470.889374,82.999969 521.048584,82.986984 571.207764,83.042999 
	C573.438538,83.045502 575.724854,83.470566 577.886292,84.061310 
	C581.452271,85.035934 583.112244,87.463982 583.037537,91.283249 
	C582.904053,98.112961 582.762939,104.957672 583.065552,111.776566 
	C583.378296,118.825256 581.397278,121.414421 573.136719,121.794983 
	C563.046997,122.259827 553.966064,124.502960 546.152649,130.996475 
	C539.645142,136.404678 535.897583,143.633621 533.004700,151.394867 
	C529.324768,161.267395 527.989746,171.512558 527.990967,181.997543 
	C528.005127,302.146362 528.000122,422.295166 527.999817,542.443970 
	C527.999817,550.622620 525.684875,552.986572 517.580627,552.995605 
	C503.416046,553.011414 489.251465,553.018799 475.086945,552.990173 
	C469.897186,552.979675 466.079926,550.427063 462.818726,546.532837 
	C457.868286,540.621277 452.661224,534.925415 447.611145,529.096375 
	C434.848663,514.365417 422.152649,499.576752 409.351685,484.879364 
	C401.586731,475.964081 393.595367,467.245758 385.851135,458.312836 
	C375.991882,446.940247 366.339691,435.388184 356.484741,424.011780 
	C348.852905,415.201691 340.981842,406.599152 333.333984,397.802673 
	C323.022461,385.942596 312.846161,373.965057 302.567566,362.076172 
	C295.705292,354.138794 288.747192,346.284393 281.865448,338.363770 
	C271.012878,325.872894 260.219971,313.330170 249.341354,300.862122 
	C241.787109,292.204132 234.064163,283.692932 226.537506,275.011353 
	C216.460266,263.387817 206.577133,251.595596 196.466095,240.001877 
	C187.683380,229.931229 178.699600,220.035919 169.000000,209.160904 
	C169.000000,212.134048 169.000000,213.747620 169.000000,215.361206 
	C169.000000,297.515656 168.832779,379.670807 169.159180,461.823944 
	C169.215759,476.063080 173.524536,489.501709 183.138184,500.674225 
	C183.866531,501.520721 184.382797,502.549713 185.258362,503.752411 
z"/>
</svg>